<?xml version="1.0" encoding="utf-8"?>
<!-- Generator: Adobe Illustrator 19.2.1, SVG Export Plug-In . SVG Version: 6.00 Build 0)  -->
<svg version="1.1" id="Capa_1" xmlns="http://www.w3.org/2000/svg" xmlns:xlink="http://www.w3.org/1999/xlink" x="0px" y="0px"
	 viewBox="0 0 28 28" style="enable-background:new 0 0 28 28;" xml:space="preserve">
<style type="text/css">
	.st0{fill:#EC9078;}
</style>
<path class="st0" d="M4.6,12.9L13,4.4c2.1-2.1,5.5-2.1,7.6,0c0.5,0.5,0.5,1.4,0,1.9c-0.5,0.5-1.4,0.5-1.9,0l-0.1-0.1
	C17.5,5.3,16,5.3,15,6.3L6.4,15c-0.6,0.5-1.4,0.5-1.9,0c-0.5-0.5-0.5-1.4,0-1.9C4.5,13,4.6,12.9,4.6,12.9L4.6,12.9z M23.5,13
	c-0.5-0.5-1.4-0.5-1.9,0c-0.1,0.1-0.1,0.1-0.2,0.2L13,21.7c-1.1,1.1-2.8,1.1-3.8,0l0,0c-0.5-0.5-1.4-0.5-1.9,0
	c-0.5,0.5-0.5,1.4,0,1.9c0.1,0.1,0.1,0.1,0.2,0.2c2.1,1.9,5.4,1.9,7.5-0.2l8.6-8.7C24,14.4,24,13.6,23.5,13L23.5,13z M10.4,18.6
	c-0.1,0.1-0.2,0.1-0.2,0.2c-0.5,0.5-0.5,1.4,0,1.9c0.5,0.5,1.4,0.5,1.9,0l8.6-8.6c1.1-1.1,2.8-1.1,3.8,0c1.1,1.1,1.1,2.8,0,3.8
	l-8.2,8.2c1.1,1.1,2.8,1.1,3.8,0l6.2-6.3c2.1-2.1,2.1-5.6,0-7.7c-2.1-2.1-5.5-2.1-7.6,0L10.4,18.6z M9.2,17.8l8.6-8.7
	c0.5-0.5,0.5-1.4,0-1.9c-0.5-0.5-1.4-0.5-1.9,0c-0.1,0.1-0.1,0.1-0.2,0.2l-8.4,8.4c-1.1,1.1-2.8,1.1-3.8,0c-1.1-1.1-1.1-2.8,0-3.8
	l8.2-8.2c-1.1-1.1-2.8-1.1-3.8,0l-6.2,6.3c-2.1,2.1-2.1,5.6,0,7.7C3.7,20,7.1,20,9.2,17.8L9.2,17.8z M9.2,17.8"/>
</svg>
