<?xml version="1.0" encoding="utf-8"?>
<!-- Generator: Adobe Illustrator 19.2.1, SVG Export Plug-In . SVG Version: 6.00 Build 0)  -->
<svg version="1.1" id="Capa_1" xmlns="http://www.w3.org/2000/svg" xmlns:xlink="http://www.w3.org/1999/xlink" x="0px" y="0px"
	 viewBox="0 0 28 28" style="enable-background:new 0 0 28 28;" xml:space="preserve">
<style type="text/css">
	.st0{fill:#F5947C;}
</style>
<path class="st0" d="M25.2,0H2.8C1.3,0,0,1.3,0,2.8v22.4C0,26.7,1.3,28,2.8,28h22.4c1.5,0,2.8-1.3,2.8-2.8V2.8C28,1.3,26.7,0,25.2,0
	z M24,9.6L23.7,13h-3.5v12h-4.5V13h-2.4V9.6h2.4V8.5v-1V7.3c0-1,0-2.6,0.8-3.6S18.3,2,20.2,2c3,0,4.3,0.4,4.3,0.4L23.9,6
	c0,0-1-0.3-1.9-0.3S20.2,6,20.2,6.9v0.4v1.2v1.1H24z"/>
</svg>
