<?xml version="1.0" encoding="utf-8"?>
<!-- Generator: Adobe Illustrator 19.2.1, SVG Export Plug-In . SVG Version: 6.00 Build 0)  -->
<svg version="1.1" id="Capa_1" xmlns="http://www.w3.org/2000/svg" xmlns:xlink="http://www.w3.org/1999/xlink" x="0px" y="0px"
	 viewBox="0 0 28 28" style="enable-background:new 0 0 28 28;" xml:space="preserve">
<style type="text/css">
	.st0{fill:#EC9078;}
</style>
<g>
	<g>
		<path class="st0" d="M14,2.5c3.7,0,4.2,0,5.7,0.1c1.4,0.1,2.1,0.3,2.6,0.5c0.7,0.3,1.1,0.6,1.6,1c0.5,0.5,0.8,1,1,1.6
			c0.2,0.5,0.4,1.2,0.5,2.6c0.1,1.5,0.1,1.9,0.1,5.7s0,4.2-0.1,5.7c-0.1,1.4-0.3,2.1-0.5,2.6c-0.3,0.7-0.6,1.1-1,1.6
			c-0.5,0.5-1,0.8-1.6,1c-0.5,0.2-1.2,0.4-2.6,0.5c-1.5,0.1-1.9,0.1-5.7,0.1s-4.2,0-5.7-0.1c-1.4-0.1-2.1-0.3-2.6-0.5
			c-0.7-0.3-1.1-0.6-1.6-1c-0.5-0.5-0.8-1-1-1.6c-0.2-0.5-0.4-1.2-0.5-2.6c-0.1-1.5-0.1-1.9-0.1-5.7s0-4.2,0.1-5.7
			C2.7,7,2.9,6.2,3.1,5.7c0.3-0.7,0.6-1.1,1-1.6c0.5-0.5,1-0.8,1.6-1C6.2,2.9,7,2.7,8.3,2.6C9.8,2.5,10.3,2.5,14,2.5 M14,0
			c-3.8,0-4.3,0-5.8,0.1C6.7,0.2,5.7,0.4,4.8,0.7C3.9,1.1,3.1,1.6,2.3,2.3C1.6,3.1,1.1,3.9,0.7,4.8C0.4,5.7,0.2,6.7,0.1,8.2
			C0,9.7,0,10.2,0,14c0,3.8,0,4.3,0.1,5.8c0.1,1.5,0.3,2.5,0.7,3.4c0.4,0.9,0.8,1.7,1.6,2.5c0.8,0.8,1.6,1.3,2.5,1.6
			c0.9,0.3,1.9,0.6,3.4,0.7C9.7,28,10.2,28,14,28s4.3,0,5.8-0.1c1.5-0.1,2.5-0.3,3.4-0.7c0.9-0.4,1.7-0.8,2.5-1.6
			c0.8-0.8,1.3-1.6,1.6-2.5c0.3-0.9,0.6-1.9,0.7-3.4c0.1-1.5,0.1-2,0.1-5.8s0-4.3-0.1-5.8c-0.1-1.5-0.3-2.5-0.7-3.4
			c-0.4-0.9-0.8-1.7-1.6-2.5c-0.8-0.8-1.6-1.3-2.5-1.6c-0.9-0.3-1.9-0.6-3.4-0.7C18.3,0,17.8,0,14,0L14,0z"/>
		<path class="st0" d="M14,6.8c-4,0-7.2,3.2-7.2,7.2s3.2,7.2,7.2,7.2s7.2-3.2,7.2-7.2S18,6.8,14,6.8z M14,18.7
			c-2.6,0-4.7-2.1-4.7-4.7c0-2.6,2.1-4.7,4.7-4.7c2.6,0,4.7,2.1,4.7,4.7C18.7,16.6,16.6,18.7,14,18.7z"/>
		<circle class="st0" cx="21.5" cy="6.5" r="1.7"/>
	</g>
</g>
</svg>
